<?xml version="1.0" encoding="UTF-8" standalone="no"?>
<!DOCTYPE svg PUBLIC "-//W3C//DTD SVG 1.1//EN" "http://www.w3.org/Graphics/SVG/1.1/DTD/svg11.dtd">
<svg width="100%" height="100%" viewBox="0 0 3544 3544" version="1.1" xmlns="http://www.w3.org/2000/svg" xmlns:xlink="http://www.w3.org/1999/xlink" xml:space="preserve" xmlns:serif="http://www.serif.com/" style="fill-rule:evenodd;clip-rule:evenodd;stroke-linejoin:round;stroke-miterlimit:2;">
    <g>
        <g transform="matrix(2.53674,2.53674,-2.53674,2.53674,2191.552016,-8496.173849)">
            <path d="M1591.861,2455.785C1399.133,2263.057 1399.133,1950.116 1591.861,1757.388C1784.589,1564.66 2097.531,1564.66 2290.259,1757.388C2482.987,1950.116 2482.987,2263.057 2290.259,2455.785C2097.531,2648.514 1784.589,2648.514 1591.861,2455.785Z" style="fill:url(#_Linear1);"/>
        </g>
        <g transform="matrix(1.278297,0,0,1.278297,-348.873186,-456.098811)">
            <g transform="matrix(1,0,0,1,0,-57.807264)">
                <path d="M654.655,2362.205C639.746,2362.205 625.739,2355.068 616.976,2343.006C608.213,2330.945 605.753,2315.418 610.36,2301.239C677.46,2094.727 894.783,1425.874 945.075,1271.091C951.31,1251.902 969.193,1238.91 989.37,1238.91C1048.244,1238.91 1170.425,1238.91 1245.759,1238.91C1260.668,1238.91 1274.675,1246.047 1283.438,1258.108C1292.201,1270.169 1294.661,1285.697 1290.054,1299.876C1222.954,1506.388 1005.63,2175.24 955.338,2330.023C949.103,2349.212 931.221,2362.205 911.044,2362.205C852.17,2362.205 729.989,2362.205 654.655,2362.205Z" style="fill:white;"/>
            </g>
            <g transform="matrix(1,0,0,1,708.661417,-57.807264)">
                <path d="M654.655,2362.205C639.746,2362.205 625.739,2355.068 616.976,2343.006C608.213,2330.945 605.753,2315.418 610.36,2301.239C677.46,2094.727 894.783,1425.874 945.075,1271.091C951.31,1251.902 969.193,1238.91 989.37,1238.91C1048.244,1238.91 1170.425,1238.91 1245.759,1238.91C1260.668,1238.91 1274.675,1246.047 1283.438,1258.108C1292.201,1270.169 1294.661,1285.697 1290.054,1299.876C1222.954,1506.388 1005.63,2175.24 955.338,2330.023C949.103,2349.212 931.221,2362.205 911.044,2362.205C852.17,2362.205 729.989,2362.205 654.655,2362.205Z" style="fill:white;"/>
            </g>
            <g transform="matrix(0.526262,0,0,0.526262,804.480001,824.089069)">
                <path d="M712.36,2362.205C684.031,2362.205 657.414,2348.643 640.763,2325.724C624.111,2302.805 619.438,2273.3 628.192,2246.358C704.938,2010.157 877.177,1480.062 935.663,1300.061C947.51,1263.597 981.49,1238.91 1019.83,1238.91C1066.668,1238.91 1131.538,1238.91 1188.054,1238.91C1216.383,1238.91 1243,1252.472 1259.651,1275.39C1276.303,1298.309 1280.976,1327.814 1272.222,1354.757C1195.475,1590.957 1023.237,2121.052 964.751,2301.053C952.903,2337.517 918.924,2362.205 880.583,2362.205L712.36,2362.205Z" style="fill:white;"/>
            </g>
            <g transform="matrix(1,0,0,1,1417.322835,-57.807264)">
                <path d="M654.655,2362.205C639.746,2362.205 625.739,2355.068 616.976,2343.006C608.213,2330.945 605.753,2315.418 610.36,2301.239C677.46,2094.727 894.783,1425.874 945.075,1271.091C951.31,1251.902 969.193,1238.91 989.37,1238.91C1048.244,1238.91 1170.425,1238.91 1245.759,1238.91C1260.668,1238.91 1274.675,1246.047 1283.438,1258.108C1292.201,1270.169 1294.661,1285.697 1290.054,1299.876C1222.954,1506.388 1005.63,2175.24 955.338,2330.023C949.103,2349.212 931.221,2362.205 911.044,2362.205C852.17,2362.205 729.989,2362.205 654.655,2362.205Z" style="fill:white;"/>
            </g>
            <g transform="matrix(0.526262,0,0,0.526262,1513.141418,824.089069)">
                <path d="M712.36,2362.205C684.031,2362.205 657.414,2348.643 640.763,2325.724C624.111,2302.805 619.438,2273.3 628.192,2246.358C704.938,2010.157 877.177,1480.062 935.663,1300.061C947.51,1263.597 981.49,1238.91 1019.83,1238.91C1066.668,1238.91 1131.538,1238.91 1188.054,1238.91C1216.383,1238.91 1243,1252.472 1259.651,1275.39C1276.303,1298.309 1280.976,1327.814 1272.222,1354.757C1195.475,1590.957 1023.237,2121.052 964.751,2301.053C952.903,2337.517 918.924,2362.205 880.583,2362.205L712.36,2362.205Z" style="fill:white;"/>
            </g>
        </g>
    </g>
    <defs>
        <linearGradient id="_Linear1" x1="0" y1="0" x2="1" y2="0" gradientUnits="userSpaceOnUse" gradientTransform="matrix(1399.218306,0,0,1399.218306,1241.450658,2106.586605)"><stop offset="0" style="stop-color:rgb(255,92,217);stop-opacity:1"/><stop offset="0.5" style="stop-color:rgb(255,118,0);stop-opacity:1"/><stop offset="1" style="stop-color:rgb(148,0,0);stop-opacity:1"/></linearGradient>
    </defs>
</svg>
