<?xml version="1.0" encoding="UTF-8" standalone="no"?>
<!DOCTYPE svg PUBLIC "-//W3C//DTD SVG 1.1//EN" "http://www.w3.org/Graphics/SVG/1.1/DTD/svg11.dtd">
<svg width="100%" height="100%" viewBox="0 0 3544 3544" version="1.1" xmlns="http://www.w3.org/2000/svg" xmlns:xlink="http://www.w3.org/1999/xlink" xml:space="preserve" xmlns:serif="http://www.serif.com/" style="fill-rule:evenodd;clip-rule:evenodd;stroke-linejoin:round;stroke-miterlimit:2;">
    <g transform="matrix(1.597718,0,0,1.597718,-878.750249,-1012.769405)">
        <g transform="matrix(1,0,0,1,0,-57.807264)">
            <path d="M641.839,2362.205C629.911,2362.205 618.704,2356.494 611.693,2346.845C604.682,2337.195 602.714,2324.771 606.4,2313.427C669.302,2119.834 900.211,1409.171 947.166,1264.657C952.154,1249.304 966.462,1238.91 982.605,1238.91L1258.575,1238.91C1270.503,1238.91 1281.71,1244.62 1288.721,1254.27C1295.732,1263.92 1297.7,1276.343 1294.014,1287.687C1231.111,1481.281 1000.203,2191.943 953.248,2336.457C948.259,2351.81 933.952,2362.205 917.809,2362.205C858.874,2362.205 718.141,2362.205 641.839,2362.205Z" style="fill:url(#_Linear1);"/>
        </g>
        <g transform="matrix(1,0,0,1,708.661417,-57.807264)">
            <path d="M641.839,2362.205C629.911,2362.205 618.704,2356.494 611.693,2346.845C604.682,2337.195 602.714,2324.771 606.4,2313.427C669.302,2119.834 900.211,1409.171 947.166,1264.657C952.154,1249.304 966.462,1238.91 982.605,1238.91C1041.539,1238.91 1182.273,1238.91 1258.575,1238.91C1270.503,1238.91 1281.71,1244.62 1288.721,1254.27C1295.732,1263.92 1297.7,1276.343 1294.014,1287.687C1231.111,1481.281 1000.203,2191.943 953.248,2336.457C948.259,2351.81 933.952,2362.205 917.809,2362.205C858.874,2362.205 718.141,2362.205 641.839,2362.205Z" style="fill:url(#_Linear2);"/>
        </g>
        <g transform="matrix(0.526262,0,0,0.526262,804.480001,824.089069)">
            <path d="M688.008,2362.205C665.342,2362.205 644.047,2351.354 630.724,2333.017C617.402,2314.681 613.663,2291.074 620.667,2269.518C694.695,2041.681 883.603,1460.284 939.635,1287.836C949.114,1258.662 976.301,1238.91 1006.976,1238.91L1212.406,1238.91C1235.072,1238.91 1256.367,1249.76 1269.69,1268.097C1283.012,1286.434 1286.751,1310.04 1279.747,1331.596C1205.718,1559.433 1016.811,2140.83 960.779,2313.279C951.3,2342.453 924.113,2362.205 893.438,2362.205L688.008,2362.205Z" style="fill:rgb(84,84,84);"/>
        </g>
        <g transform="matrix(1,0,0,1,1417.322835,-57.807264)">
            <path d="M641.839,2362.205C629.911,2362.205 618.704,2356.494 611.693,2346.845C604.682,2337.195 602.714,2324.771 606.4,2313.427C669.302,2119.834 900.211,1409.171 947.166,1264.657C952.154,1249.304 966.462,1238.91 982.605,1238.91L1258.575,1238.91C1270.503,1238.91 1281.71,1244.62 1288.721,1254.27C1295.732,1263.92 1297.7,1276.343 1294.014,1287.687C1231.111,1481.281 1000.203,2191.943 953.248,2336.457C948.259,2351.81 933.952,2362.205 917.809,2362.205C858.874,2362.205 718.141,2362.205 641.839,2362.205Z" style="fill:url(#_Linear3);"/>
        </g>
        <g transform="matrix(0.526262,0,0,0.526262,1513.141418,824.089069)">
            <path d="M688.008,2362.205C665.342,2362.205 644.047,2351.354 630.724,2333.017C617.402,2314.681 613.663,2291.074 620.667,2269.518C694.695,2041.681 883.603,1460.284 939.635,1287.836C949.114,1258.662 976.301,1238.91 1006.976,1238.91L1212.406,1238.91C1235.072,1238.91 1256.367,1249.76 1269.69,1268.097C1283.012,1286.434 1286.751,1310.04 1279.747,1331.596C1205.718,1559.433 1016.811,2140.83 960.779,2313.279C951.3,2342.453 924.113,2362.205 893.438,2362.205C839.804,2362.205 754.456,2362.205 688.008,2362.205Z" style="fill:rgb(84,84,84);"/>
        </g>
    </g>
    <defs>
        <linearGradient id="_Linear1" x1="0" y1="0" x2="1" y2="0" gradientUnits="userSpaceOnUse" gradientTransform="matrix(719.311411,0,0,1123.295098,590.551181,1800.557175)"><stop offset="0" style="stop-color:rgb(166,9,76);stop-opacity:1"/><stop offset="1" style="stop-color:rgb(255,205,205);stop-opacity:1"/></linearGradient>
        <linearGradient id="_Linear2" x1="0" y1="0" x2="1" y2="0" gradientUnits="userSpaceOnUse" gradientTransform="matrix(719.311411,0,0,1123.295098,590.551181,1800.557175)"><stop offset="0" style="stop-color:rgb(237,34,170);stop-opacity:1"/><stop offset="1" style="stop-color:rgb(255,203,0);stop-opacity:1"/></linearGradient>
        <linearGradient id="_Linear3" x1="0" y1="0" x2="1" y2="0" gradientUnits="userSpaceOnUse" gradientTransform="matrix(719.311411,0,0,1123.295098,590.551181,1800.557175)"><stop offset="0" style="stop-color:rgb(43,2,2);stop-opacity:1"/><stop offset="1" style="stop-color:rgb(255,0,0);stop-opacity:1"/></linearGradient>
    </defs>
</svg>
